<?xml version="1.0" encoding="UTF-8"?>
<!-- Generator: Adobe Illustrator 21.0.0, SVG Export Plug-In . SVG Version: 6.00 Build 0)  -->
<svg version="1.1" id="Layer_80" xmlns="http://www.w3.org/2000/svg" xmlns:xlink="http://www.w3.org/1999/xlink" x="0px" y="0px" viewBox="0 0 170.1 113.4" style="enable-background:new 0 0 170.1 113.4;" xml:space="preserve">
<style type="text/css">
	.st0{fill-rule:evenodd;clip-rule:evenodd;fill:none;stroke:#000000;stroke-width:2;stroke-miterlimit:10;}
	.st1{fill-rule:evenodd;clip-rule:evenodd;fill:none;stroke:#000000;stroke-width:2;stroke-linejoin:bevel;stroke-miterlimit:10;}
	.st2{fill:none;stroke:#000000;stroke-width:2;stroke-linejoin:round;stroke-miterlimit:10;}
	.st3{fill:none;stroke:#000000;stroke-width:2;stroke-miterlimit:10;}
	.st4{fill:#FFFFFF;}
	.st5{fill-rule:evenodd;clip-rule:evenodd;fill:none;stroke:#000000;stroke-width:2;}
	.st6{fill:none;stroke:#000000;stroke-width:2;stroke-linecap:round;stroke-linejoin:round;stroke-miterlimit:10;}
	.st7{fill:#439BD6;}
	.st8{fill:#63B345;}
	.st9{fill:#868686;}
	.st10{fill:#1D1D1B;}
	.st11{fill-rule:evenodd;clip-rule:evenodd;fill:none;stroke:#000000;stroke-width:2;stroke-linecap:round;stroke-miterlimit:10;}
	.st12{fill:none;stroke:#000000;stroke-width:2;stroke-linecap:round;stroke-miterlimit:10;}
</style>
<g>
	<path class="st7" d="M27.4,54.7c0,2,1.6,3.7,3.7,3.7h20c2,0,3.7-1.7,3.7-3.7c0-0.2,0-0.8,0-0.8c-0.1-10.4-7.5-21.4-20.9-21.4   c-12.3,0-21.6,9.8-21.6,23.1c0,15.1,10.7,23.3,22.5,23.3c6.2,0,11.4-1.9,15.7-5.8c0.5-0.5,1.2-1.5,1.2-2.8c0-2.2-1.5-3.7-3.6-3.7   c-1.1,0-1.7,0.3-2.3,0.8c-3.3,2.8-7.1,4.3-11,4.3c-7.6,0-14.4-5.3-14.4-16.1c0-9.3,6-16,13.7-16c6.5,0,11.1,4.1,12.3,11.4H31   C29,50.9,27.4,52.6,27.4,54.7z"/>
	<g>
		<path class="st8" d="M108.8,41.1c-2.3,0-4.2,1.8-4.2,4.1v29.6c0,2.2,1.9,4.1,4.2,4.1c2.2,0,4.1-1.8,4.1-4.1V45.2    C112.9,42.9,111,41.1,108.8,41.1z"/>
		<path class="st8" d="M149.7,18.8c-2.3,0-4.2,1.9-4.2,4.2v40.7L112,20.5c-0.8-1-2-1.6-3.3-1.6c-0.9,0-1.8,0.3-2.5,0.9    c-1.8,1.4-2.1,4-0.7,5.8l39,50.5c1.3,1.7,2.6,2.8,4.8,2.8h0.4c2.4,0,4.2-1.9,4.2-4.3V23C154,20.7,152,18.8,149.7,18.8z"/>
	</g>
	<g>
		<path class="st9" d="M96.5,60.5c0-6.7-4-12.3-7.7-14.3c-0.6-0.3-1.7-0.8-3.1-0.5c-2.1,0.5-3.2,2.4-2.7,4.4c0.3,1,0.7,1.5,1.4,2.1    c1.2,1,4.7,3.5,4.7,8.6c0,6-7.7,10.8-13.2,10.8c-4.6,0-8.3-1.6-11.6-4.3c-0.7-0.5-1.3-0.8-2.3-0.8c-2.1,0-3.6,1.6-3.6,3.7    c0,1.4,0.7,2.4,1.2,2.8c4.3,3.8,9.2,5.8,16.3,5.8C86,78.8,96.5,71.3,96.5,60.5z"/>
		<path class="st9" d="M97.7,22.4c0-2.2-1.8-3.7-4.4-3.7H62.1c-2.1,0-3.7,1.6-3.7,3.7c0,2,1.7,3.7,3.7,3.7h23.6L67.1,44.4    c-1.5,1.5-1.5,3.9,0,5.4c1.5,1.5,3.8,1.5,5.3,0l22.5-22.2C96.9,25.6,97.7,24.4,97.7,22.4z"/>
	</g>
	<g>
		<path class="st9" d="M13.8,99c-0.1,0.2-0.4,0.4-0.7,0.4c-0.3,0-0.6-0.1-0.7-0.4c-0.1-0.2-0.1-0.3-0.1-0.7v-8.5    c0-0.4,0-0.5,0.1-0.7c0.1-0.2,0.4-0.4,0.7-0.4c0.3,0,0.6,0.1,0.7,0.4c0.1,0.2,0.1,0.3,0.1,0.7v8.5C13.9,98.7,13.9,98.8,13.8,99z"/>
		<path class="st9" d="M18.9,98.3c0,0.4,0,0.5-0.1,0.7c-0.1,0.2-0.4,0.4-0.7,0.4c-0.3,0-0.6-0.1-0.7-0.4c-0.1-0.2-0.1-0.3-0.1-0.7    v-8.6c0-0.3,0.1-0.6,0.2-0.8c0.2-0.2,0.4-0.3,0.6-0.3c0.4,0,0.6,0.2,0.9,0.7l4.6,6.8v-6.4c0-0.4,0-0.5,0.1-0.7    c0.1-0.2,0.4-0.4,0.7-0.4c0.3,0,0.6,0.1,0.7,0.4c0.1,0.2,0.1,0.3,0.1,0.7v8.6c0,0.3-0.1,0.6-0.2,0.8c-0.2,0.2-0.4,0.3-0.6,0.3    c-0.4,0-0.6-0.2-0.9-0.7l-4.6-6.8V98.3z"/>
		<path class="st9" d="M34.8,90c-0.2,0.1-0.3,0.1-0.7,0.1h-2v8.1c0,0.4,0,0.5-0.1,0.7c-0.1,0.2-0.4,0.4-0.7,0.4    c-0.3,0-0.6-0.1-0.7-0.4c-0.1-0.2-0.1-0.3-0.1-0.7v-8.1h-2c-0.3,0-0.5,0-0.7-0.1c-0.2-0.1-0.3-0.3-0.3-0.6c0-0.3,0.1-0.5,0.3-0.6    c0.2-0.1,0.3-0.1,0.7-0.1h5.6c0.3,0,0.5,0,0.7,0.1c0.2,0.1,0.3,0.3,0.3,0.6C35.1,89.7,35,89.9,34.8,90z"/>
		<path class="st9" d="M39.1,93.2h3.5c0.3,0,0.5,0,0.7,0.1c0.2,0.1,0.3,0.3,0.3,0.6c0,0.3-0.1,0.5-0.3,0.6c-0.2,0.1-0.3,0.1-0.7,0.1    h-3.5v3.2h4.2c0.3,0,0.5,0,0.7,0.1c0.2,0.1,0.3,0.3,0.3,0.6c0,0.3-0.1,0.5-0.3,0.6c-0.2,0.1-0.3,0.1-0.7,0.1h-4.9    c-0.2,0-0.5,0-0.7-0.2c-0.2-0.2-0.2-0.5-0.2-0.7v-8.6c0-0.2,0-0.5,0.2-0.8c0.2-0.2,0.5-0.2,0.7-0.2h4.9c0.3,0,0.5,0,0.7,0.1    c0.2,0.1,0.3,0.3,0.3,0.6c0,0.3-0.1,0.5-0.3,0.6c-0.2,0.1-0.3,0.1-0.7,0.1h-4.2V93.2z"/>
		<path class="st9" d="M47,98.3v-8.6c0-0.2,0-0.5,0.2-0.8c0.2-0.2,0.5-0.2,0.8-0.2h3.1c2,0,3.3,1.3,3.3,3.1c0,1.5-0.9,2.5-2.1,2.8    l1.9,3.3c0.2,0.3,0.2,0.5,0.3,0.7c0,0.3-0.1,0.5-0.4,0.7c-0.1,0.1-0.3,0.1-0.4,0.1c-0.4,0-0.6-0.3-0.8-0.7l-2.2-3.9h-2v3.4    c0,0.4,0,0.5-0.1,0.7c-0.1,0.2-0.4,0.4-0.7,0.4c-0.3,0-0.6-0.1-0.7-0.4C47,98.8,47,98.7,47,98.3z M48.6,90.1v3.3H51    c1.1,0,1.8-0.6,1.8-1.6c0-1-0.7-1.7-1.8-1.7H48.6z"/>
		<path class="st9" d="M59,98.3c0,0.4,0,0.5-0.1,0.7c-0.1,0.2-0.4,0.4-0.7,0.4s-0.6-0.1-0.7-0.4c-0.1-0.2-0.1-0.3-0.1-0.7v-8.6    c0-0.3,0.1-0.6,0.2-0.8c0.2-0.2,0.4-0.3,0.6-0.3c0.4,0,0.6,0.2,0.9,0.7l4.6,6.8v-6.4c0-0.4,0-0.5,0.1-0.7c0.1-0.2,0.4-0.4,0.7-0.4    c0.3,0,0.6,0.1,0.7,0.4c0.1,0.2,0.1,0.3,0.1,0.7v8.6c0,0.3-0.1,0.6-0.2,0.8c-0.2,0.2-0.4,0.3-0.6,0.3c-0.4,0-0.6-0.2-0.9-0.7    L59,91.9V98.3z"/>
		<path class="st9" d="M70.3,93.2h3.5c0.3,0,0.5,0,0.7,0.1c0.2,0.1,0.3,0.3,0.3,0.6c0,0.3-0.1,0.5-0.3,0.6c-0.2,0.1-0.3,0.1-0.7,0.1    h-3.5v3.2h4.2c0.3,0,0.5,0,0.7,0.1c0.2,0.1,0.3,0.3,0.3,0.6c0,0.3-0.1,0.5-0.3,0.6c-0.2,0.1-0.3,0.1-0.7,0.1h-4.9    c-0.2,0-0.5,0-0.7-0.2c-0.2-0.2-0.2-0.5-0.2-0.7v-8.6c0-0.2,0-0.5,0.2-0.8c0.2-0.2,0.5-0.2,0.7-0.2h4.9c0.3,0,0.5,0,0.7,0.1    c0.2,0.1,0.3,0.3,0.3,0.6c0,0.3-0.1,0.5-0.3,0.6c-0.2,0.1-0.3,0.1-0.7,0.1h-4.2V93.2z"/>
		<path class="st9" d="M84.7,90c-0.2,0.1-0.3,0.1-0.7,0.1h-2v8.1c0,0.4,0,0.5-0.1,0.7c-0.1,0.2-0.4,0.4-0.7,0.4    c-0.3,0-0.6-0.1-0.7-0.4c-0.1-0.2-0.1-0.3-0.1-0.7v-8.1h-2c-0.3,0-0.5,0-0.7-0.1c-0.2-0.1-0.3-0.3-0.3-0.6c0-0.3,0.1-0.5,0.3-0.6    c0.2-0.1,0.3-0.1,0.7-0.1H84c0.3,0,0.5,0,0.7,0.1c0.2,0.1,0.3,0.3,0.3,0.6C85,89.7,84.9,89.9,84.7,90z"/>
		<path class="st9" d="M87.5,97.2l-0.5,1.4c-0.1,0.4-0.2,0.5-0.3,0.6c-0.1,0.1-0.3,0.2-0.4,0.2c-0.2,0-0.4-0.1-0.6-0.2    c-0.3-0.3-0.2-0.6-0.1-1.1l3.2-8.6c0.1-0.3,0.2-0.4,0.3-0.5c0.2-0.1,0.3-0.2,0.6-0.2c0.3,0,0.4,0.1,0.6,0.2    c0.1,0.1,0.2,0.2,0.3,0.5l3.2,8.6c0.2,0.4,0.3,0.7-0.1,1.1c-0.1,0.1-0.4,0.2-0.6,0.2c-0.2,0-0.3-0.1-0.4-0.2    c-0.1-0.1-0.2-0.3-0.3-0.6l-0.5-1.4H87.5z M89.6,91.2L88,95.8h3.4L89.6,91.2z"/>
		<path class="st9" d="M98,97.3c0.4,0.4,0.9,0.7,1.6,0.7c0.6,0,1.2-0.2,1.6-0.6c0.5-0.5,0.6-1.1,0.6-2.2h-1.3c-0.3,0-0.5,0-0.7-0.1    c-0.2-0.1-0.3-0.3-0.3-0.6c0-0.3,0.1-0.5,0.3-0.6c0.2-0.1,0.3-0.1,0.7-0.1h1.9c0.2,0,0.5,0,0.7,0.2c0.2,0.2,0.2,0.5,0.2,0.8v0.2    c0,1.7-0.2,2.6-1,3.5c-0.7,0.7-1.6,1.1-2.7,1.1c-1.2,0-2.1-0.4-2.7-1.1c-1-1-1.1-2.1-1.1-4.3c0-2.2,0-3.3,1.1-4.3    c0.7-0.7,1.6-1.1,2.7-1.1c1.3,0,2.1,0.4,2.8,1.1c0.6,0.6,0.8,1.3,0.8,1.7c0,0.3-0.1,0.5-0.2,0.6c-0.2,0.1-0.3,0.2-0.6,0.2    c-0.2,0-0.4-0.1-0.5-0.2c-0.2-0.1-0.3-0.3-0.4-0.6c-0.4-0.9-1-1.4-2-1.4c-0.6,0-1.1,0.2-1.5,0.7c-0.6,0.6-0.6,1.3-0.6,3.3    C97.3,96.1,97.4,96.7,98,97.3z"/>
		<path class="st9" d="M107.8,93.2h3.5c0.3,0,0.5,0,0.7,0.1c0.2,0.1,0.3,0.3,0.3,0.6c0,0.3-0.1,0.5-0.3,0.6    c-0.2,0.1-0.3,0.1-0.7,0.1h-3.5v3.2h4.2c0.3,0,0.5,0,0.7,0.1c0.2,0.1,0.3,0.3,0.3,0.6c0,0.3-0.1,0.5-0.3,0.6    c-0.2,0.1-0.3,0.1-0.7,0.1h-4.9c-0.2,0-0.5,0-0.7-0.2c-0.2-0.2-0.2-0.5-0.2-0.7v-8.6c0-0.2,0-0.5,0.2-0.8c0.2-0.2,0.5-0.2,0.7-0.2    h4.9c0.3,0,0.5,0,0.7,0.1c0.2,0.1,0.3,0.3,0.3,0.6c0,0.3-0.1,0.5-0.3,0.6c-0.2,0.1-0.3,0.1-0.7,0.1h-4.2V93.2z"/>
		<path class="st9" d="M117.3,98.3c0,0.4,0,0.5-0.1,0.7c-0.1,0.2-0.4,0.4-0.7,0.4c-0.3,0-0.6-0.1-0.7-0.4c-0.1-0.2-0.1-0.3-0.1-0.7    v-8.6c0-0.3,0.1-0.6,0.2-0.8c0.2-0.2,0.4-0.3,0.6-0.3c0.4,0,0.6,0.2,0.9,0.7l4.6,6.8v-6.4c0-0.4,0-0.5,0.1-0.7    c0.1-0.2,0.4-0.4,0.7-0.4c0.3,0,0.6,0.1,0.7,0.4c0.1,0.2,0.1,0.3,0.1,0.7v8.6c0,0.3-0.1,0.6-0.2,0.8c-0.2,0.2-0.4,0.3-0.6,0.3    c-0.4,0-0.6-0.2-0.9-0.7l-4.6-6.8V98.3z"/>
		<path class="st9" d="M133.3,90c-0.2,0.1-0.3,0.1-0.7,0.1h-2v8.1c0,0.4,0,0.5-0.1,0.7c-0.1,0.2-0.4,0.4-0.7,0.4    c-0.3,0-0.6-0.1-0.7-0.4c-0.1-0.2-0.1-0.3-0.1-0.7v-8.1h-2c-0.3,0-0.5,0-0.7-0.1c-0.2-0.1-0.3-0.3-0.3-0.6c0-0.3,0.1-0.5,0.3-0.6    c0.2-0.1,0.3-0.1,0.7-0.1h5.6c0.3,0,0.5,0,0.7,0.1c0.2,0.1,0.3,0.3,0.3,0.6C133.6,89.7,133.5,89.9,133.3,90z"/>
		<path class="st9" d="M135.8,95.7v-6c0-0.4,0-0.5,0.1-0.7c0.1-0.2,0.4-0.4,0.7-0.4s0.6,0.1,0.7,0.4c0.1,0.2,0.1,0.3,0.1,0.7v5.9    c0,1.4,0.9,2.3,2.2,2.3c1.3,0,2.2-0.9,2.2-2.3v-5.9c0-0.4,0-0.5,0.1-0.7c0.1-0.2,0.4-0.4,0.7-0.4c0.3,0,0.6,0.1,0.7,0.4    c0.1,0.2,0.1,0.3,0.1,0.7v6c0,2.2-1.6,3.7-3.8,3.7C137.4,99.4,135.8,97.9,135.8,95.7z"/>
		<path class="st9" d="M146.5,98.3v-8.6c0-0.2,0-0.5,0.2-0.8c0.2-0.2,0.5-0.2,0.7-0.2h3.1c2,0,3.3,1.3,3.3,3.1    c0,1.5-0.9,2.5-2.1,2.8l1.9,3.3c0.2,0.3,0.2,0.5,0.3,0.7c0,0.3-0.1,0.5-0.4,0.7c-0.1,0.1-0.3,0.1-0.4,0.1c-0.4,0-0.6-0.3-0.8-0.7    l-2.2-3.9h-2v3.4c0,0.4,0,0.5-0.1,0.7c-0.1,0.2-0.4,0.4-0.7,0.4c-0.3,0-0.6-0.1-0.7-0.4C146.5,98.8,146.5,98.7,146.5,98.3z     M148.1,90.1v3.3h2.4c1.1,0,1.8-0.6,1.8-1.6c0-1-0.7-1.7-1.8-1.7H148.1z"/>
	</g>
</g>
</svg>