<?xml version="1.0" encoding="UTF-8" standalone="no"?>
<svg xmlns:rdf="http://www.w3.org/1999/02/22-rdf-syntax-ns#" xmlns="http://www.w3.org/2000/svg" height="207.5" width="637.97" version="1.1" xmlns:cc="http://creativecommons.org/ns#" xmlns:xlink="http://www.w3.org/1999/xlink" xmlns:dc="http://purl.org/dc/elements/1.1/">
 <defs>
  <clipPath id="a" clipPathUnits="userSpaceOnUse">
   <path d="m286.62 400.74c3.138-0.74733 5.9356-0.47358 8.75-0.25-7.8388 2.8348-9.1123 4.956-1.625 6.125-4.8881 1.0777-7.3568 3.6338-6.25 8.375-6.0622-1.7015-4.6332 0.96754-3.625 3.5 4.8595 12.206 4.8997 17.123 3 19-5.5798 5.5129-8.1776 18.559-3.875 25.75 5.8353 9.7529 10.056 20.254 14.375 30.625 1.1966 2.8736 1.3968 5.8092-0.625 8.25-13.786 16.643-31.868 19.223-44.25 8.875-8.139-6.8022-12.848-8.2446-19-7.125-4.3182 0.78582-8.1945-0.81464-11.875-2.375-4.5832-1.9431-7.7076 0.43184-8.5 5.75-2.66-0.56331-4.7914 0.45927-7 1.25 2.1471 1.9362 2.2815 5.8851 2.875 9.375-7.6856-0.13538-11.72-1.0645-14-2.375 0.3693 4.5463-2.1392 9.3572-6 14.375-3.5187-3.732-5.4711-7.6599-7.125-11.625-2.4844 4.8828-3.6525 10.424-4.75 16-7.4626-9.4379-11.358-18.519-11.75-27.25-2.3564 3.1929-5.8686 5.6153-9.625 7.875 2.2818-4.9471 1.4278-9.1622-1.625-13-2.5532-3.2097-2.7176-7.5602-2.625-12-2.567 1.7079-4.6374 4.2433-6.5 7.125 0.16681-5.9135-1.0247-11.482-3.5-17.125-2.8922-6.593-1.7213-13.067 0.75-19.125-2.9902 2.5588-6.1502 4.0988-9.375 5.25 2.7705-10.21 7.2918-17.054 13.125-21.375-5.6212-0.47689-9.6099-2.949-13.125-6 3.5811 1.2091 6.6254-0.34176 9.125-3.25 1.9058-2.2174 4.1771-3.566 6.625-4.75-6.1149 0.88645-11.714 0.22389-17.125-1 6.0811-2.8969 8.7275-7.5113 11.125-12.25 2.4787-4.8992 8.0428-9.3186 15.25-13.5-2.5874-0.80949-4.3412-2.2441-6-3.75 5.4646-1.2928 10.593-4.5674 15.625-8.875 8.46-7.2418 20.433-12.437 31.75-15.875l61.625 9.25z" stroke="#000" stroke-width="1px" fill="none"/>
  </clipPath>
 </defs>
 <g>
  <g transform="translate(-131.5 -326.74)">
   <g clip-path="url(#a)">
    <rect style="color:#000000" height="246.25" width="271.75" y="317.11" x="77.75" fill="#d7d7d7"/>
    <path d="m192.88 415.11c-8.3588 1.5264-11.444 6.2376-13.125 11.75-1.2848 4.213-3.5341 6.3921-5.875 8.875-2.7673 2.9352-4.4721 6.9793-5.5 11.25 4.18-4.5322 9.5351-5.6564 15.375-5.375-0.98375 4.3357-4.6102 7.5439-9.5 9.875-4.0043 1.909-6.3209 4.1257-8.625 6.5 4.979 2.9667 12.318 3.779 21.125 3.25-0.62624 4.0918-6.0573 8.0745-14 12 2.3715 0.87182 12.144 1.1269 26.5 1-3.7902 1.5146-6.0011 3.9134-7 6.875-1.9398 5.7511-6.2634 9.0158-12.375 10.875 5.485 2.655 12.316 2.617 19.625 1.625-0.51503 4.6174-1.9877 9.3412-4 14.125 2.9686-1.9494 5.2108-4.5243 6.875-7.625 1.8478-3.4428 3.7997-3.2936 6.125 0.375 1.4632 2.3085 3.6774 4.3495 6.75 6.25l13.562 0.3125c-14.962-19.3-1.3132-43.291 26.312-42.875 8.4438 0.12707 15.217-2.3055 15.851-10.916 0.50734-6.8903 0.35507-20.143-1.8298-24.505-1.7047-3.4036-0.61514-5.3197-0.084-8.642 0.79683-4.9837-3.8611-11.434-9.6875-19.812-3.3032-4.7501 0.98056-3.489 5.375 0.1875-0.50586-2.5833-1.5395-5.1655-2.875-7.75-2.7785-5.3771 6.5199 0.0415 8.875 14.5 0.86138 5.2883 1.3655 8.1268 3.5 11.25 2.6867 3.9311 3.5341 9.6268 2.25 18.375-2.0452 13.933 2.3127 24.359 10.875 32l17.375-84.375-80-12.5z" fill="#3b3b3b"/>
    <path d="m294.86 509.22c-6.4551-2.8832-10.791-5.4453-11.844-12.64-0.56887-3.8863 1.7979-5.0481 4.2426-5.6569 4.0976-1.0203 7.955 0.5852 12.109 3.3588l8.8388 6.5407z" fill="#3b3b3b"/>
   </g>
   <path d="m197.5 384.86c-2.2472-6.1081-2.9236-12.23-0.125-18.625 1.6423-3.7528 1.4602-7.5908 0.875-11.375 4.2545 5.3491 6.8506 9.2767 9.5 13.25 1.2623-6.6989 3.4433-10.825 5.875-14.25-0.61528 2.8419 0.24627 5.9299 1 9 1.5626-3.8333 4.4274-6.5531 7.9268-8.5214 5.5316-3.1114 6.6396-6.7871 5.9482-12.235 3.1084 1.84 4.2198 3.86 5 6.6313 7.4064-0.0401 10.786-2.5449 13.125-5.75 4.2288-5.7952 8.1021-9.78 12.5-11.125 2.7745-0.8485 4.534-2.5158 5.75-5.125 2.0103 7.125 2.8311 14.488 0.125 21.375-1.5688 3.9924-2.3673 7.0468-3 10.5 3.2431-1.404 5.1287-3.9582 7.25-6.25-2.0549 4.1209-3.7548 7.4972-5.8999 10.043-4.5494 5.3999-4.6651 10.818-2.4751 16.207 8.2844-10.253 24.557-25.199 38.355-25.721 5.5925-0.21161 10.215-2.0506 14.645-5.5291-3.0348 6.8859-7.5334 12.413-13.75 15.625-5.887 3.042-6.7103 5.0015-6.875 7.625 2.4992-1.5862 5.0743-2.9486 9.0539-4.0617-4.9672 3.2326-5.9202 5.2579-6.9289 8.3117l5.125-1.75c-4.6786 4.9184-8.0843 10.928-11.125 17.25 1.9662-0.30973 3.7686-1.1108 5.5-2.125-1.8072 4.1667-6.1968 10.543-10.548 14.268l-23.758-15.442-33.941 3.3588-33.322 27.577c-3.5036-4.2138-11.671-7.2617-20.771-10.076 3.8809-4.0977 9.2073-5.465 15.203-5.5685-4.9831-4.7484-5.7912-8.0232-6.8943-11.402 2.5875 3.9286 4.8655 5.846 6.9827 6.7175-3.9311-9.0005-5.7259-16.628-6.364-23.511 3.5054 6.7238 9.2434 9.62 16.039 10.704z" fill="#3b3b3b"/>
  </g>
 </g>
</svg>